<?xml version="1.0" encoding="iso-8859-1"?>
<!-- Generator: Adobe Illustrator 19.0.0, SVG Export Plug-In . SVG Version: 6.00 Build 0)  -->
<svg version="1.1" id="Layer_1" xmlns="http://www.w3.org/2000/svg" xmlns:xlink="http://www.w3.org/1999/xlink" x="0px" y="0px"
	 viewBox="0 0 512 512" style="enable-background:new 0 0 512 512;" xml:space="preserve">
<g>
	<polygon style="fill:#06344C;" points="405.094,0 298.125,0 256,22.756 213.875,0 106.906,0 106.906,66.076 256,88.832 
		405.094,66.076 	"/>
	<path style="fill:#06344C;" d="M106.906,491.436c0,0,63.033,20.564,149.094,20.564s149.094-20.564,149.094-20.564v-73.512
		L256,395.168l-149.094,22.756C106.906,417.924,106.906,491.436,106.906,491.436z"/>
</g>
<path style="fill:#0A547B;" d="M213.875,0c0,0,0,7.641,0,17.067c0,9.426,7.641,17.067,17.067,17.067h50.118
	c9.425,0,17.067-7.64,17.067-17.067c0-9.425,0-17.067,0-17.067H213.875z"/>
<path style="fill:#74E7E7;" d="M273.721,479.904h-35.442c-4.714,0-8.533-3.82-8.533-8.533c0-4.714,3.82-8.533,8.533-8.533h35.442
	c4.714,0,8.533,3.819,8.533,8.533C282.254,476.085,278.435,479.904,273.721,479.904z"/>
<g>
	<path style="fill:#0299D1;" d="M347.676,468.527h-35.442c-4.714,0-8.533-3.82-8.533-8.533c0-4.714,3.82-8.533,8.533-8.533h35.442
		c4.714,0,8.533,3.819,8.533,8.533C356.21,464.707,352.39,468.527,347.676,468.527z"/>
	<path style="fill:#0299D1;" d="M199.765,468.527h-35.442c-4.714,0-8.533-3.82-8.533-8.533c0-4.714,3.82-8.533,8.533-8.533h35.442
		c4.714,0,8.533,3.819,8.533,8.533C208.299,464.707,204.479,468.527,199.765,468.527z"/>
	<rect x="106.906" y="66.082" style="fill:#0299D1;" width="298.189" height="351.846"/>
</g>
<g>
</g>
<g>
</g>
<g>
</g>
<g>
</g>
<g>
</g>
<g>
</g>
<g>
</g>
<g>
</g>
<g>
</g>
<g>
</g>
<g>
</g>
<g>
</g>
<g>
</g>
<g>
</g>
<g>
</g>
</svg>
